<svg width="7" height="4" viewBox="0 0 7 4" fill="none" xmlns="http://www.w3.org/2000/svg">
<path d="M6.41784 -5.02284e-07C6.35705 -5.04942e-07 6.30327 0.0229089 6.25651 0.0687279L3.5 2.76976L0.743487 0.0687277C0.696727 0.0229087 0.642953 -7.54713e-07 0.582164 -7.5737e-07C0.521376 -7.60027e-07 0.467602 0.0229086 0.420842 0.0687277L0.07014 0.41237C0.02338 0.458189 1.52514e-07 0.510881 1.49911e-07 0.570446C1.47307e-07 0.630011 0.0233799 0.682702 0.07014 0.728522L3.33868 3.93127C3.38544 3.97709 3.43921 4 3.5 4C3.56079 4 3.61456 3.97709 3.66132 3.93127L6.92986 0.728522C6.97662 0.682703 7 0.630011 7 0.570446C7 0.510881 6.97662 0.45819 6.92986 0.412371L6.57916 0.068728C6.5324 0.0229089 6.47862 -4.99627e-07 6.41784 -5.02284e-07Z" fill="black"/>
</svg>
