<svg width="16" height="18" viewBox="0 0 16 18" fill="none" xmlns="http://www.w3.org/2000/svg">
<path d="M0.627709 14.6904C1.02907 13.68 1.61151 12.7622 2.34259 11.9882C3.07145 11.2119 3.93486 10.5929 4.88513 10.1655C4.89364 10.161 4.90215 10.1588 4.91066 10.1542C3.58514 9.13665 2.72344 7.47912 2.72344 5.60902C2.72344 2.51103 5.08513 0.000976562 8 0.000976562C10.9149 0.000976562 13.2766 2.51103 13.2766 5.60902C13.2766 7.47912 12.4149 9.13665 11.0893 10.1565C11.0979 10.161 11.1064 10.1633 11.1149 10.1678C12.0681 10.5952 12.9234 11.208 13.6574 11.9904C14.3878 12.7651 14.9702 13.6827 15.3723 14.6927C15.7673 15.6814 15.9804 16.7415 15.9999 17.8155C16.0005 17.8397 15.9965 17.8637 15.9882 17.8862C15.9799 17.9086 15.9675 17.9291 15.9516 17.9464C15.9358 17.9637 15.9168 17.9774 15.8959 17.9868C15.8749 17.9962 15.8525 18.001 15.8297 18.001H14.5531C14.4595 18.001 14.3851 17.9218 14.3829 17.8246C14.3404 16.0789 13.6808 14.4439 12.5149 13.2047C11.3085 11.9226 9.70637 11.2171 8 11.2171C6.29363 11.2171 4.69151 11.9226 3.48514 13.2047C2.31919 14.4439 1.65962 16.0789 1.61706 17.8246C1.61494 17.9241 1.54047 18.001 1.44685 18.001H0.170265C0.147551 18.001 0.125063 17.9962 0.10413 17.9868C0.0831966 17.9774 0.0642405 17.9637 0.048378 17.9464C0.0325155 17.9291 0.0200682 17.9086 0.0117683 17.8862C0.00346947 17.8637 -0.000514984 17.8397 5.34058e-05 17.8155C0.0213299 16.7346 0.231967 15.6831 0.627709 14.6904ZM8 9.49846C8.97659 9.49846 9.89573 9.09369 10.5872 8.35877C11.2787 7.62384 11.6596 6.64696 11.6596 5.60902C11.6596 4.57108 11.2787 3.59419 10.5872 2.85927C9.89573 2.12434 8.97659 1.71957 8 1.71957C7.02341 1.71957 6.10427 2.12434 5.41278 2.85927C4.7213 3.59419 4.34045 4.57108 4.34045 5.60902C4.34045 6.64696 4.7213 7.62384 5.41278 8.35877C6.10427 9.09369 7.02341 9.49846 8 9.49846Z" fill="black"/>
</svg>
