<svg id="Слой_1" data-name="Слой 1" xmlns="http://www.w3.org/2000/svg" viewBox="0 0 19 18"><defs><style>.cls-1{fill:#00abc7;}</style></defs><title>Call-back</title><path class="cls-1" d="M362.453,231.736a.814.814,0,0,1,.565.069.748.748,0,0,1,.388.413l1.694,3.853a.728.728,0,0,1,.035.5,1.023,1.023,0,0,1-.282.465l-2.118,1.686a12.642,12.642,0,0,0,2.559,3.578,12.414,12.414,0,0,0,3.689,2.512l1.73-2.064a1.053,1.053,0,0,1,.476-.275.782.782,0,0,1,.512.035l3.953,1.651a.8.8,0,0,1,.494.929l-.847,3.578a.649.649,0,0,1-.282.482.908.908,0,0,1-.53.172,16.43,16.43,0,0,1-8.259-2.167,16.258,16.258,0,0,1-5.895-5.746,15.4,15.4,0,0,1-2.224-8.051.857.857,0,0,1,.177-.516.674.674,0,0,1,.494-.275Z" transform="translate(-358.112 -231.318)"/><path class="cls-1" d="M376.694,237.855a.465.465,0,0,1-.149.349.491.491,0,0,1-.358.145H370.4a.492.492,0,0,1-.358-.146.466.466,0,0,1-.149-.348v-5.637a.463.463,0,0,1,.149-.349.492.492,0,0,1,.359-.145l.669-.015a.461.461,0,0,1,.351.153.5.5,0,0,1,.142.356l-.075,3.414,4.277-4.17a.514.514,0,0,1,.716,0l.477.464a.482.482,0,0,1,0,.7l-4.277,4.17,3.5-.073a.534.534,0,0,1,.365.138.438.438,0,0,1,.156.341Z" transform="translate(-358.112 -231.318)"/></svg>