<svg width="112" height="47" viewBox="0 0 112 47" fill="none" xmlns="http://www.w3.org/2000/svg">
<g clip-path="url(#clip0)">
<path d="M27.0587 47H32.2894V24.0881H27.0587V47ZM51.5021 24.0881H35.5586V28.9978H40.8899V47H46.1205V28.9978H51.4518V24.0881H51.5021ZM12.5738 41.0163L5.83422 24.0881H0L9.55606 47H15.5412L25.0972 24.0881H19.263L12.5738 41.0163ZM59.8008 47H65.635L62.7179 39.2775L59.8008 47ZM65.635 24.0881H59.8008L50.2447 47H56.079L62.7179 30.2764L69.3568 47H75.1911L65.635 24.0881Z" fill="#12C9D3"/>
<path d="M108.587 11.6605C110.096 10.4842 111.051 8.59195 111.051 6.4951C111.051 2.91512 108.185 0 104.664 0H96.2647V4.90968H104.01C105.217 4.90968 106.223 5.93254 106.223 7.15996C106.223 8.38738 105.217 9.41023 104.01 9.41023H98.528V14.3199H104.513C105.871 14.3199 106.927 15.3939 106.927 16.7748C106.927 18.1556 105.871 19.2296 104.513 19.2296H95.9629V24.1393H105.167C108.838 24.1393 111.756 21.1219 111.756 17.4396C111.756 14.9848 110.498 12.8368 108.587 11.6605ZM9.55606 0L0 24.0881H5.83422L12.5738 6.29053L19.3133 24.0881H25.1475L15.5412 0H9.55606ZM9.40517 24.0881H15.692L12.5738 15.2916L9.40517 24.0881ZM65.1321 0H59.2978L55.6263 9.2568L51.9548 0H46.1205L50.8986 11.5071L45.6679 24.0881H51.5021L55.6263 13.6551L59.7505 24.0881H65.5847L60.354 11.5071L65.1321 0ZM87.5637 24.0881H92.7943V0H87.5637V24.0881ZM77.5046 6.80196H73.6822V0H68.4515V24.0881H77.4543C82.1318 24.0881 85.9542 20.2013 85.9542 15.445C86.0045 10.6888 82.1821 6.80196 77.5046 6.80196ZM76.5993 19.6387H73.6822V11.3025H76.5993C78.8626 11.3025 80.7235 13.1948 80.7235 15.4962C80.6732 17.7465 78.8626 19.6387 76.5993 19.6387ZM36.6148 0H27.0587V24.0881H32.2894V17.0305H36.6148C41.2419 17.0305 44.9638 13.1948 44.9638 8.5408C45.0141 3.83569 41.2419 0 36.6148 0ZM36.0615 12.5299H32.2894V4.50054H36.0615C38.2745 4.50054 39.6828 6.29053 39.6828 8.5408C39.6828 10.7399 38.2745 12.5299 36.0615 12.5299Z" fill="#E8002A"/>
</g>
<defs>
<clipPath id="clip0">
<rect width="111.756" height="47" fill="white"/>
</clipPath>
</defs>
</svg>
