<svg width="18" height="13" viewBox="0 0 18 13" fill="none" xmlns="http://www.w3.org/2000/svg">
<path d="M9 3.71429C7.53014 3.71429 6.3145 4.97621 6.3145 6.5C6.3145 8.02471 7.53014 9.28572 9 9.28572C10.469 9.28572 11.6855 8.02471 11.6855 6.5C11.6855 4.97621 10.469 3.71429 9 3.71429Z" fill="#B1B1BB"/>
<path d="M9 0C2.1672 0 0.113686 6.14436 0.0948877 6.20657L0 6.5L0.0939926 6.79343C0.113686 6.85564 2.1672 13 9 13C15.8328 13 17.8863 6.85564 17.9051 6.79343L18 6.5L17.906 6.20657C17.8863 6.14436 15.8328 0 9 0ZM9 11.1429C4.20997 11.1429 2.35429 7.57157 1.90491 6.5C2.35608 5.42471 4.21265 1.85714 9 1.85714C13.79 1.85714 15.6457 5.42843 16.0951 6.5C15.6439 7.57529 13.7873 11.1429 9 11.1429Z" fill="#B1B1BB"/>
</svg>
