<svg id="Layer_1" data-name="Layer 1" xmlns="http://www.w3.org/2000/svg" viewBox="0 0 18 18"><defs><style>.cls-1{fill:#00acc8;}</style></defs><title>Search</title><path class="cls-1" d="M23.754,21.574a.849.849,0,0,1,0,1.2l-.984.984a.849.849,0,0,1-1.2,0l-3.516-3.516a.814.814,0,0,1-.246-.6v-.562a7.085,7.085,0,0,1-4.5,1.547,7.1,7.1,0,0,1-3.674-.984,7.387,7.387,0,0,1-2.654-2.654,7.348,7.348,0,0,1,0-7.348A7.387,7.387,0,0,1,9.639,6.984a7.348,7.348,0,0,1,7.348,0,7.387,7.387,0,0,1,2.654,2.654,7.1,7.1,0,0,1,.984,3.674,7.085,7.085,0,0,1-1.547,4.5h.563a.814.814,0,0,1,.6.246ZM13.313,17.813a4.462,4.462,0,0,0,2.268-.6,4.378,4.378,0,0,0,1.635-1.635,4.6,4.6,0,0,0,0-4.535A4.378,4.378,0,0,0,15.58,9.41a4.6,4.6,0,0,0-4.535,0A4.377,4.377,0,0,0,9.41,11.045a4.6,4.6,0,0,0,0,4.535,4.377,4.377,0,0,0,1.635,1.635A4.462,4.462,0,0,0,13.313,17.813Z" transform="translate(-6 -6)"/></svg>